<svg width="40" height="40" viewBox="0 0 40 40" fill="none" xmlns="http://www.w3.org/2000/svg">
<g id="Frame 197">
<rect width="40" height="40" fill="white"/>
<g id="Group 172">
<g id="Union">
<mask id="path-1-inside-1_2094_1378" fill="white">
<path fill-rule="evenodd" clip-rule="evenodd" d="M10.9999 9.14282C8.63301 9.14282 6.71423 11.0616 6.71423 13.4285V26.2857C6.71423 28.6526 8.63301 30.5714 10.9999 30.5714H15.7143V33.2803C15.7143 34.5452 17.1389 35.2859 18.1743 34.5593L23.8571 30.5714H28.4285C30.7955 30.5714 32.7142 28.6526 32.7142 26.2857V13.4285C32.7142 11.0616 30.7955 9.14282 28.4285 9.14282H10.9999Z"/>
</mask>
<path d="M15.7143 30.5714H17.1428V29.1428H15.7143V30.5714ZM18.1743 34.5593L18.9949 35.7287H18.9949L18.1743 34.5593ZM23.8571 30.5714V29.1428H23.4058L23.0365 29.402L23.8571 30.5714ZM8.1428 13.4285C8.1428 11.8506 9.42199 10.5714 10.9999 10.5714V7.71425C7.84404 7.71425 5.28566 10.2726 5.28566 13.4285H8.1428ZM8.1428 26.2857V13.4285H5.28566V26.2857H8.1428ZM10.9999 29.1428C9.42199 29.1428 8.1428 27.8636 8.1428 26.2857H5.28566C5.28566 29.4416 7.84403 32 10.9999 32V29.1428ZM15.7143 29.1428H10.9999V32H15.7143V29.1428ZM17.1428 33.2803V30.5714H14.2857V33.2803H17.1428ZM17.3537 33.3899C17.3203 33.4134 17.2996 33.4163 17.2868 33.4168C17.2686 33.4177 17.2428 33.4136 17.215 33.3991C17.1872 33.3847 17.169 33.3659 17.1593 33.3506C17.1524 33.3397 17.1428 33.3211 17.1428 33.2803H14.2857C14.2857 35.7017 17.0128 37.1196 18.9949 35.7287L17.3537 33.3899ZM23.0365 29.402L17.3537 33.3899L18.9949 35.7287L24.6777 31.7408L23.0365 29.402ZM28.4285 29.1428H23.8571V32H28.4285V29.1428ZM31.2857 26.2857C31.2857 27.8636 30.0065 29.1428 28.4285 29.1428V32C31.5844 32 34.1428 29.4416 34.1428 26.2857H31.2857ZM31.2857 13.4285V26.2857H34.1428V13.4285H31.2857ZM28.4285 10.5714C30.0065 10.5714 31.2857 11.8506 31.2857 13.4285H34.1428C34.1428 10.2726 31.5844 7.71425 28.4285 7.71425V10.5714ZM10.9999 10.5714H28.4285V7.71425H10.9999V10.5714Z" fill="#282828" mask="url(#path-1-inside-1_2094_1378)"/>
</g>
<g id="Group 173">
<circle id="Ellipse 300" cx="15" cy="18.4285" r="2.14286" fill="#282828"/>
<circle id="Ellipse 301" cx="25" cy="18.4285" r="2.14286" fill="#282828"/>
</g>
</g>
</g>
</svg>
