<svg width="28" height="28" viewBox="0 0 28 28" fill="none" xmlns="http://www.w3.org/2000/svg">
<g id="Frame 116">
<g id="Group 117">
<rect id="Rectangle 696" x="3.665" y="7.165" width="18.67" height="16.17" rx="2.335" stroke="#282828" stroke-width="1.33"/>
<path id="Subtract" fill-rule="evenodd" clip-rule="evenodd" d="M8.49993 5.33H22.4999C23.4223 5.33 24.1699 6.07768 24.1699 7V18.5C24.1699 19.2481 23.678 19.8813 23 20.0938V21C23 21.1579 22.9878 21.313 22.9643 21.4643C24.4006 21.2411 25.4999 19.9989 25.4999 18.5V7C25.4999 5.34315 24.1568 4 22.4999 4H8.49993C7.00099 4 5.75881 5.09932 5.53564 6.53571C5.68698 6.51219 5.84205 6.49999 5.99997 6.49999H6.90608C7.11857 5.82194 7.7518 5.33 8.49993 5.33Z" fill="#282828"/>
<path id="Vector 8" d="M3.83325 17.75C4.38881 18.3056 5.91659 19.4167 7.58325 19.4167C11.7499 19.4167 11.7499 15.6667 15.4999 15.6667C19.6666 15.6667 21.1944 17.4722 22.1666 18.5834" stroke="#282828" stroke-width="1.33"/>
<circle id="Ellipse 43" cx="7.84375" cy="12.1771" r="1.67875" stroke="#BA2636" stroke-width="1.33"/>
</g>
</g>
</svg>
