<svg width="28" height="28" viewBox="0 0 28 28" fill="none" xmlns="http://www.w3.org/2000/svg">
<path d="M10.1754 11V5.15809C10.1754 4.48938 9.8412 3.86492 9.2848 3.49399L8.65322 3.07293C7.32411 2.18686 5.54382 3.13964 5.54382 4.73703V11" stroke="#BA2636" stroke-width="1.33"/>
<mask id="path-2-inside-1_818_2151" fill="white">
<path d="M4 11C4 10.4477 4.44772 10 5 10H11C11.5523 10 12 10.4477 12 11V22C12 23.6569 10.6569 25 9 25H7C5.34315 25 4 23.6569 4 22V11Z"/>
</mask>
<path d="M4 11C4 10.4477 4.44772 10 5 10H11C11.5523 10 12 10.4477 12 11V22C12 23.6569 10.6569 25 9 25H7C5.34315 25 4 23.6569 4 22V11Z" stroke="#282828" stroke-width="2.66" mask="url(#path-2-inside-1_818_2151)"/>
<path d="M18.4386 2.1579C15.8576 2.1579 13.9894 3.11533 12.8134 4.10677C11.8762 4.89684 11.9978 6.25514 12.7708 7.20646L15.6872 10.7959C16.2113 11.4409 16.4443 12.2744 16.3307 13.0976L15.1093 21.953C15.0159 22.6306 15.1393 23.3409 15.6278 23.8198C16.1993 24.3802 17.0435 24.9298 18.0526 24.9298C19.0859 24.9298 19.9463 24.3535 20.5181 23.7795C20.9762 23.3196 21.1042 22.651 21.0374 22.0053L20.1103 13.0431C20.0284 12.2516 20.2643 11.4601 20.766 10.8426L23.8394 7.05997C24.5515 6.1836 24.7243 4.94356 23.9077 4.16373C22.8486 3.15233 21.069 2.1579 18.4386 2.1579Z" stroke="#282828" stroke-width="1.33"/>
<line x1="16.1228" y1="14.0506" x2="19.9825" y2="14.0506" stroke="#282828" stroke-width="1.33"/>
</svg>
