<svg width="32" height="32" viewBox="0 0 32 32" fill="none" xmlns="http://www.w3.org/2000/svg">
<g id="Frame 204">
<rect width="32" height="32" fill="white"/>
<g id="Group 172">
<g id="Union">
<mask id="path-1-inside-1_2361_1985" fill="white">
<path fill-rule="evenodd" clip-rule="evenodd" d="M8.00084 4.11426C6.10729 4.11426 4.57227 5.64928 4.57227 7.54283V19.8068C4.57227 21.7004 6.10729 23.2354 8.00084 23.2354H12.6035V25.9294C12.6035 26.9414 13.7432 27.5339 14.5715 26.9526L19.8686 23.2354H24.344C26.2376 23.2354 27.7726 21.7004 27.7726 19.8068V7.54283C27.7726 5.64928 26.2376 4.11426 24.344 4.11426H8.00084Z"/>
</mask>
<path d="M12.6035 23.2354H14.1235V21.7154H12.6035V23.2354ZM14.5715 26.9526L13.6984 25.7084L13.6984 25.7084L14.5715 26.9526ZM19.8686 23.2354V21.7154H19.3884L18.9954 21.9912L19.8686 23.2354ZM6.09227 7.54283C6.09227 6.48875 6.94676 5.63426 8.00084 5.63426V2.59426C5.26782 2.59426 3.05227 4.80981 3.05227 7.54283H6.09227ZM6.09227 19.8068V7.54283H3.05227V19.8068H6.09227ZM8.00084 21.7154C6.94676 21.7154 6.09227 20.8609 6.09227 19.8068H3.05227C3.05227 22.5399 5.26782 24.7554 8.00084 24.7554V21.7154ZM12.6035 21.7154H8.00084V24.7554H12.6035V21.7154ZM14.1235 25.9294V23.2354H11.0835V25.9294H14.1235ZM13.6984 25.7084C13.8773 25.5828 14.1235 25.7108 14.1235 25.9294H11.0835C11.0835 28.1719 13.6091 29.485 15.4447 28.1968L13.6984 25.7084ZM18.9954 21.9912L13.6984 25.7084L15.4447 28.1968L20.7417 24.4796L18.9954 21.9912ZM24.344 21.7154H19.8686V24.7554H24.344V21.7154ZM26.2526 19.8068C26.2526 20.8609 25.3981 21.7154 24.344 21.7154V24.7554C27.077 24.7554 29.2926 22.5399 29.2926 19.8068H26.2526ZM26.2526 7.54283V19.8068H29.2926V7.54283H26.2526ZM24.344 5.63426C25.3981 5.63426 26.2526 6.48876 26.2526 7.54283H29.2926C29.2926 4.80981 27.077 2.59426 24.344 2.59426V5.63426ZM8.00084 5.63426H24.344V2.59426H8.00084V5.63426Z" fill="#282828" mask="url(#path-1-inside-1_2361_1985)"/>
</g>
<g id="Group 173">
<circle id="Ellipse 300" cx="11.767" cy="12.2026" r="1.71429" fill="#BA2636"/>
<circle id="Ellipse 301" cx="20.6908" cy="12.2026" r="1.71429" fill="#BA2636"/>
</g>
</g>
</g>
</svg>
