<svg width="32" height="32" viewBox="0 0 32 32" fill="none" xmlns="http://www.w3.org/2000/svg">
<g id="Frame 201">
<rect width="32" height="32" fill="white"/>
<g id="Group 120">
<path id="Subtract" fill-rule="evenodd" clip-rule="evenodd" d="M10.2858 5.09129H21.7144C22.7685 5.09129 23.623 5.94579 23.623 6.99986V14.9981L25.143 14.3141V6.99986C25.143 5.10631 23.6079 3.57129 21.7144 3.57129H10.2858C8.39226 3.57129 6.85724 5.10631 6.85724 6.99986V14.0747L8.37724 14.7985V6.99986C8.37724 5.94579 9.23173 5.09129 10.2858 5.09129Z" fill="#282828"/>
<path id="Vector 2" d="M4 12.7144L16 18.4286L27.4286 13.2858" stroke="#282828" stroke-width="1.52"/>
<path id="Subtract_2" fill-rule="evenodd" clip-rule="evenodd" d="M6.85724 9.3374L5.81754 9.66821C4.39476 10.1209 3.42853 11.4423 3.42853 12.9354V24.1426C3.42853 26.0362 4.96355 27.5712 6.8571 27.5712H25.1428C27.0364 27.5712 28.5714 26.0362 28.5714 24.1426V12.9354C28.5714 11.4423 27.6051 10.1209 26.1824 9.66821L25.143 9.33749V10.9326L25.7215 11.1167C26.5135 11.3687 27.0514 12.1042 27.0514 12.9354V24.1426C27.0514 25.1967 26.1969 26.0512 25.1428 26.0512H6.8571C5.80302 26.0512 4.94853 25.1967 4.94853 24.1426V12.9354C4.94853 12.1042 5.4864 11.3687 6.27841 11.1167L6.85724 10.9325V9.3374Z" fill="#282828"/>
<path id="Line 63" d="M10.2858 8.71436H19.4286" stroke="#BA2636" stroke-width="1.52" stroke-linecap="round"/>
<path id="Line 64" d="M10.2858 12.1426H17.1429" stroke="#BA2636" stroke-width="1.52" stroke-linecap="round"/>
</g>
</g>
</svg>
